# xmcd
#
# Track frame offsets:
#	150
#	14868
#	30801
#	47632
#	63395
#	78769
#	93918
#	106393
#	122686
#	135141
#	147199
#	161957
#
# Disc length: 2386 seconds
#
# Revision: 0
# Processed by: cddbd v1.5.2PL0 Copyright (c) Steve Scherf et al.
# Submitted via: MusicManager 7.3.0.0 
#
DISCID=9209500c
DTITLE=DARREN BUSBY - FROM HERE TO ETERNITY
DYEAR=2012
DGENRE=country
TTITLE0=I COULD'NT LEAVE YOU IF I TRIED
TTITLE1=THAT'S WHAT THEY SAID ABOUT THE BUFFALO
TTITLE2=RAMBLING FEVER
TTITLE3=FROM HERE TO ETERNITY
TTITLE4=HEAVEN IN MY WOMANS EYES
TTITLE5=HOW FAR TO WECO
TTITLE6=TEQUILA SUNRISE
TTITLE7=BELLE OF THE BALL
TTITLE8=I LOVE YOU TO MUCH
TTITLE9=BEGGIN TO YOU
TTITLE10=CHILLAXING
TTITLE11=I'M NOT THROUGH LOVING YOU
EXTD=
EXTT0=
EXTT1=
EXTT2=
EXTT3=
EXTT4=
EXTT5=
EXTT6=
EXTT7=
EXTT8=
EXTT9=
EXTT10=
EXTT11=
PLAYORDER=
